<?xml version="1.0" encoding="UTF-8" standalone="no"?>
<!-- Created with Inkscape (http://www.inkscape.org/) -->

<svg
   width="50mm"
   height="50mm"
   viewBox="0 0 50 50"
   version="1.1"
   id="svg1"
   inkscape:version="1.3.2 (091e20e, 2023-11-25, custom)"
   sodipodi:docname="resources_icon.svg"
   xmlns:inkscape="http://www.inkscape.org/namespaces/inkscape"
   xmlns:sodipodi="http://sodipodi.sourceforge.net/DTD/sodipodi-0.dtd"
   xmlns="http://www.w3.org/2000/svg"
   xmlns:svg="http://www.w3.org/2000/svg">
  <sodipodi:namedview
     id="namedview1"
     pagecolor="#505050"
     bordercolor="#ffffff"
     borderopacity="1"
     inkscape:showpageshadow="0"
     inkscape:pageopacity="0"
     inkscape:pagecheckerboard="1"
     inkscape:deskcolor="#505050"
     inkscape:document-units="mm"
     inkscape:zoom="2.0686841"
     inkscape:cx="-17.402367"
     inkscape:cy="128.82586"
     inkscape:window-width="1920"
     inkscape:window-height="1017"
     inkscape:window-x="1912"
     inkscape:window-y="-8"
     inkscape:window-maximized="1"
     inkscape:current-layer="svg1" />
  <defs
     id="defs1" />
  <g
     id="g8"
     transform="translate(-5.9694447,-1.5016205)">
    <circle
       style="fill:none;stroke:#ffffff;stroke-width:2.5;stroke-linecap:round;stroke-linejoin:round;stroke-opacity:1"
       id="path1"
       cx="25"
       cy="19.656906"
       r="5.200213"
       transform="rotate(-45,51.915187,17.213253)" />
    <g
       id="g7">
      <path
         style="fill:none;stroke:#ffffff;stroke-width:2.37867;stroke-linecap:round;stroke-linejoin:round;stroke-opacity:1"
         d="m 25,25.715402 v 10.64341"
         id="path2"
         transform="rotate(-45,51.915187,17.213253)" />
      <path
         id="rect1"
         style="fill:#ffffff;stroke:none;stroke-width:2.5;stroke-linejoin:round"
         d="m 15.927193,10.52959 c -0.885698,0 -1.598869,0.713171 -1.598869,1.598869 V 37.87159 c 0,0.885698 0.713171,1.598352 1.598869,1.598352 h 10.594186 a 7.9876709,7.9876709 0 0 1 2.185913,-7.144783 7.9876709,7.9876709 0 0 1 6.964432,-2.211752 V 12.128459 c 0,-0.885698 -0.71317,-1.598869 -1.598868,-1.598869 z m 2.199349,3.397725 h 13.746965 c 0.801643,0 1.44694,0.645814 1.44694,1.447457 0,0.801643 -0.645297,1.44694 -1.44694,1.44694 H 18.126542 c -0.801643,0 -1.44694,-0.645297 -1.44694,-1.44694 0,-0.801643 0.645297,-1.447457 1.44694,-1.447457 z m 0,6.586678 h 13.746965 c 0.801644,0 1.44694,0.645297 1.44694,1.44694 0,0.801646 -0.645296,1.447457 -1.44694,1.447457 H 18.126542 c -0.801644,0 -1.44694,-0.645811 -1.44694,-1.447457 0,-0.801643 0.645296,-1.44694 1.44694,-1.44694 z m 0,6.586678 h 13.746965 c 0.801645,0 1.44694,0.645296 1.44694,1.44694 0,0.801646 -0.645295,1.447457 -1.44694,1.447457 H 18.126542 c -0.801645,0 -1.44694,-0.645811 -1.44694,-1.447457 0,-0.801644 0.645295,-1.44694 1.44694,-1.44694 z" />
    </g>
  </g>
  <g
     inkscape:label="Layer 1"
     inkscape:groupmode="layer"
     id="layer1" />
</svg>
